<svg width="15" height="15" viewBox="0 0 15 15" fill="none" xmlns="http://www.w3.org/2000/svg">
<path d="M0.132298 3.30971L7.39798 0.0218408C7.4624 -0.00728027 7.53741 -0.00728027 7.60179 0.0218408L14.8675 3.30971C14.9485 3.34636 15 3.42326 15 3.50758V11.4924C15 11.5767 14.9485 11.6536 14.8675 11.6903L7.60183 14.9781C7.56963 14.9927 7.53475 15 7.4999 15C7.46506 15 7.43021 14.9927 7.39798 14.9781L0.132298 11.6903C0.0512864 11.6536 -0.00018937 11.5767 -0.00018937 11.4924V3.50761C-0.00018937 3.42323 0.0513176 3.34639 0.132298 3.30971ZM7.4999 0.463725L0.773392 3.50758L2.72327 4.38994C2.73562 4.38112 2.74865 4.37298 2.76296 4.3665L9.44378 1.34336L7.4999 0.463725ZM9.97317 1.5918L3.25644 4.63123L4.63211 5.25376L11.3461 2.21556L9.97317 1.5918ZM3.09929 5.04807V7.34922L4.38426 7.9307V5.62955L3.09929 5.04807ZM0.468629 11.3545L7.2655 14.4302V6.93335L5.64423 6.1997C5.52765 6.14693 5.47877 6.01559 5.53506 5.90629C5.59135 5.79704 5.73146 5.75116 5.84807 5.80395L7.4999 6.55146L8.14987 6.25732C8.26649 6.2045 8.4066 6.25038 8.46289 6.35966C8.51918 6.46893 8.4703 6.6003 8.35372 6.65307L7.73431 6.93335V14.4302L14.5312 11.3545V3.85765L9.35543 6.19978C9.32258 6.21467 9.28785 6.2217 9.25369 6.2217C9.16655 6.2217 9.08285 6.17594 9.04244 6.09745C8.98615 5.98817 9.03504 5.85681 9.15161 5.80404L14.2264 3.50758L11.8978 2.45383L4.85633 5.64024C4.8553 5.64159 4.85414 5.64279 4.85308 5.64411V8.2808C4.85308 8.35641 4.81161 8.4267 4.74328 8.46692C4.70534 8.48924 4.66205 8.50052 4.61864 8.50052C4.58389 8.50052 4.54904 8.49329 4.51675 8.47867L2.76296 7.68505C2.68195 7.6484 2.63048 7.57152 2.63048 7.48718V4.83596L0.468629 3.85768V11.3545V11.3545Z" fill="black"/>
</svg>
