<svg width="26" height="26" viewBox="0 0 26 26" fill="none" xmlns="http://www.w3.org/2000/svg">
<path d="M10.4805 19.2695L21.7305 8.01953L19.9727 6.20312L10.4805 15.6953L6.02734 11.2422L4.26953 13L10.4805 19.2695ZM4.15234 4.21094C6.61328 1.75 9.5625 0.519531 13 0.519531C16.4375 0.519531 19.3672 1.75 21.7891 4.21094C24.25 6.63281 25.4805 9.5625 25.4805 13C25.4805 16.4375 24.25 19.3867 21.7891 21.8477C19.3672 24.2695 16.4375 25.4805 13 25.4805C9.5625 25.4805 6.61328 24.2695 4.15234 21.8477C1.73047 19.3867 0.519531 16.4375 0.519531 13C0.519531 9.5625 1.73047 6.63281 4.15234 4.21094Z" fill="#387E6C"/>
</svg>
